Calvin Harris - Drinking From The Bottle (Ft. Tinie Tempah) {M4A+MP4} (1080p) x264 [VX] [P2PDL]
 
http://www.shotpix.com/images/23122939120364246853.png


Release Title: Calvin Harris Feat. Tinie Tempah - Drinking From The Bottle (2012)


                                 1080p Full HD MP4 Video
                                           +
                                 128 Kbps/VBR M4A Audio

General
Format                         : MPEG-4
Format profile                 : Base Media / Version 2
Codec ID                       : mp42
File size                      : 50.7 MiB
Duration                       : 5mn 33s

Video
ID                             : 1
Format                         : AVC
Width                          : 1 920 pixels
Height                         : 816 pixels
Display aspect ratio           : 2.35:1
Frame rate mode                : Variable
Frame rate                     : 23.976 fps
Color space                    : YUV
Chroma subsampling             : 4:2:0
Bit depth                      : 8 bits
Scan type                      : Progressive
Bits/(Pixel*Frame)             : 0.030
Stream size                    : 45.4 MiB (90%)
Writing library                : x264 core 128

Audio
ID                             : 2
Format                         : AAC
Format/Info                    : Advanced Audio Codec
Format profile                 : LC
Codec ID                       : 40
Duration                       : 5mn 33s
Bit rate mode                  : Variable
Bit rate                       : 128 Kbps
Maximum bit rate               : 294 Kbps
Channel(s)                     : 2 channels
Channel positions              : Front: L R
Sampling rate                  : 44.1 KHz
Compression mode               : Lossy
Stream size                    : 5.09 MiB (10%)


Subtitles                      : No

Screens:
 
http://www.shotpix.com/images/26253416910685360786.jpg 
http://www.shotpix.com/images/33957762072947218105.jpg

Thumbs:
 
http://www.shotpix.com/images/96829118429336597235.jpg

------------------------------------------------------------------------

Notes:

* Recommended to use latest version VLC Media Player.
* Install shark007 codecs in case of any kind of problem in playback (For non-VLC Media Player users).
* Alternatively, install Core AVC codecs, the fastest decoder that there is coupled with Community Center Codec Pack and play on Windows Media Player Classic.

Greets to: VYTO, a2zRG, staff members at ExtraTorrent, TPB,KAT, 1337x, PublicHD, Ahashare, TorrentMafia, BTScene, P2PDL, and all others

Encoder Notes: Looking For Early Access To Anything You Can Provide DVDScr, R5, DVDRips, BluRay, Direct Audio, Early Music
Releases, Seedboxes, Links, Dedicated Servers anything u can provide, Advance / Promo CDs/DVDs. If You Got anything to
offer contact me at "prg@hush.com"

Facebook Fan Page: www . facebook . com / p2pdl